<mxfile host="65bd71144e">
    <diagram id="Gih7iKVNsT4u7ENvWJo_" name="Page-1">
        <mxGraphModel dx="2440" dy="1619" grid="1" gridSize="10" guides="1" tooltips="1" connect="1" arrows="1" fold="1" page="1" pageScale="1" pageWidth="1200" pageHeight="1920" math="0" shadow="0">
            <root>
                <mxCell id="0"/>
                <mxCell id="1" parent="0"/>
                <mxCell id="3" value="&lt;font style=&quot;font-size: 24px; color: rgb(255, 255, 255);&quot;&gt;64&lt;/font&gt;" style="rounded=1;whiteSpace=wrap;html=1;resizeHeight=0;strokeOpacity=100;fillOpacity=100;strokeColor=none;gradientColor=none;fillColor=#97D077;" parent="1" vertex="1">
                    <mxGeometry x="280" y="600" width="40" height="40" as="geometry"/>
                </mxCell>
                <mxCell id="4" value="&lt;font style=&quot;font-size: 24px; color: rgb(255, 255, 255);&quot;&gt;34&lt;/font&gt;" style="rounded=1;whiteSpace=wrap;html=1;resizeHeight=0;strokeOpacity=100;fillOpacity=100;strokeColor=none;gradientColor=none;fillColor=#97D077;" parent="1" vertex="1">
                    <mxGeometry x="320" y="600" width="40" height="40" as="geometry"/>
                </mxCell>
                <mxCell id="5" value="&lt;font style=&quot;font-size: 24px; color: rgb(255, 255, 255);&quot;&gt;25&lt;/font&gt;" style="rounded=1;whiteSpace=wrap;html=1;resizeHeight=0;strokeOpacity=100;fillOpacity=100;strokeColor=none;gradientColor=none;fillColor=#97D077;" parent="1" vertex="1">
                    <mxGeometry x="360" y="600" width="40" height="40" as="geometry"/>
                </mxCell>
                <mxCell id="6" value="&lt;font style=&quot;font-size: 24px; color: rgb(255, 255, 255);&quot;&gt;12&lt;/font&gt;" style="rounded=1;whiteSpace=wrap;html=1;resizeHeight=0;strokeOpacity=100;fillOpacity=100;strokeColor=none;gradientColor=none;fillColor=#97D077;" parent="1" vertex="1">
                    <mxGeometry x="400" y="600" width="40" height="40" as="geometry"/>
                </mxCell>
                <mxCell id="7" value="&lt;font style=&quot;font-size: 24px; color: rgb(255, 255, 255);&quot;&gt;22&lt;/font&gt;" style="rounded=1;whiteSpace=wrap;html=1;resizeHeight=0;strokeOpacity=100;fillOpacity=100;strokeColor=none;gradientColor=none;fillColor=#97D077;" parent="1" vertex="1">
                    <mxGeometry x="440" y="600" width="40" height="40" as="geometry"/>
                </mxCell>
                <mxCell id="8" value="&lt;font style=&quot;font-size: 24px; color: rgb(255, 255, 255);&quot;&gt;11&lt;/font&gt;" style="rounded=1;whiteSpace=wrap;html=1;resizeHeight=0;strokeOpacity=100;fillOpacity=100;strokeColor=none;gradientColor=none;fillColor=#97D077;" parent="1" vertex="1">
                    <mxGeometry x="480" y="600" width="40" height="40" as="geometry"/>
                </mxCell>
                <mxCell id="9" value="&lt;font style=&quot;font-size: 24px; color: rgb(255, 255, 255);&quot;&gt;90&lt;/font&gt;" style="rounded=1;whiteSpace=wrap;html=1;resizeHeight=0;strokeOpacity=100;fillOpacity=100;strokeColor=none;gradientColor=none;fillColor=#97D077;" parent="1" vertex="1">
                    <mxGeometry x="520" y="600" width="40" height="40" as="geometry"/>
                </mxCell>
                <mxCell id="10" value="&lt;font style=&quot;font-size: 18px;&quot;&gt;&lt;b&gt;希尔排序（Shell Sort）&lt;/b&gt;&lt;/font&gt;" style="text;html=1;align=center;verticalAlign=middle;whiteSpace=wrap;rounded=0;" parent="1" vertex="1">
                    <mxGeometry x="240" y="440" width="360" height="40" as="geometry"/>
                </mxCell>
                <mxCell id="11" value="&lt;b&gt;初始数组&lt;/b&gt;" style="text;html=1;align=left;verticalAlign=middle;whiteSpace=wrap;rounded=0;" parent="1" vertex="1">
                    <mxGeometry x="160" y="600" width="80" height="40" as="geometry"/>
                </mxCell>
                <mxCell id="12" value="&lt;b&gt;&lt;font style=&quot;color: rgb(0, 0, 0);&quot;&gt;第1次进行分组&lt;/font&gt;&lt;/b&gt;&lt;div&gt;&lt;b&gt;&lt;font style=&quot;color: rgb(0, 0, 0);&quot;&gt;gap = len/2 = 3&lt;/font&gt;&lt;/b&gt;&lt;/div&gt;" style="text;html=1;align=left;verticalAlign=middle;whiteSpace=wrap;rounded=0;" parent="1" vertex="1">
                    <mxGeometry x="160" y="799.96" width="120" height="40" as="geometry"/>
                </mxCell>
                <mxCell id="13" value="&lt;b&gt;数组变量&lt;/b&gt;" style="text;html=1;align=left;verticalAlign=middle;whiteSpace=wrap;rounded=0;" parent="1" vertex="1">
                    <mxGeometry x="160" y="520" width="80" height="40" as="geometry"/>
                </mxCell>
                <mxCell id="14" value="&lt;div style=&quot;background-color: rgb(255, 255, 255); color: rgb(8, 8, 8);&quot;&gt;&lt;pre style=&quot;font-family:&#39;JetBrains Mono&#39;,monospace;font-size:12.0pt;&quot;&gt;&lt;span style=&quot;color: rgb(0, 51, 179);&quot;&gt;int &lt;/span&gt;&lt;span style=&quot;color: rgb(0, 0, 0);&quot;&gt;arr&lt;/span&gt;&lt;span style=&quot;color: rgb(63, 145, 1);&quot;&gt;[] &lt;/span&gt;= &lt;span style=&quot;color: rgb(14, 74, 142);&quot;&gt;{&lt;/span&gt;&lt;span style=&quot;color: rgb(23, 80, 235);&quot;&gt;64&lt;/span&gt;, &lt;span style=&quot;color: rgb(23, 80, 235);&quot;&gt;34&lt;/span&gt;, &lt;span style=&quot;color: rgb(23, 80, 235);&quot;&gt;25&lt;/span&gt;, &lt;span style=&quot;color: rgb(23, 80, 235);&quot;&gt;12&lt;/span&gt;, &lt;span style=&quot;color: rgb(23, 80, 235);&quot;&gt;22&lt;/span&gt;, &lt;span style=&quot;color: rgb(23, 80, 235);&quot;&gt;11&lt;/span&gt;, &lt;span style=&quot;color: rgb(23, 80, 235);&quot;&gt;90&lt;/span&gt;&lt;span style=&quot;color: rgb(14, 74, 142);&quot;&gt;}&lt;/span&gt;;&lt;br&gt;&lt;span style=&quot;color: rgb(0, 51, 179);&quot;&gt;int &lt;/span&gt;&lt;span style=&quot;color: rgb(0, 0, 0);&quot;&gt;len &lt;/span&gt;= &lt;span style=&quot;color: rgb(0, 51, 179);&quot;&gt;sizeof&lt;/span&gt;&lt;span style=&quot;color: rgb(63, 145, 1);&quot;&gt;(&lt;/span&gt;&lt;span style=&quot;color: rgb(0, 0, 0);&quot;&gt;arr&lt;/span&gt;&lt;span style=&quot;color: rgb(63, 145, 1);&quot;&gt;) &lt;/span&gt;/ &lt;span style=&quot;color: rgb(0, 51, 179);&quot;&gt;sizeof&lt;/span&gt;&lt;span style=&quot;color: rgb(63, 145, 1);&quot;&gt;(&lt;/span&gt;&lt;span style=&quot;color: rgb(0, 0, 0);&quot;&gt;arr&lt;/span&gt;&lt;span style=&quot;color: rgb(63, 145, 1);&quot;&gt;[&lt;/span&gt;&lt;span style=&quot;color: rgb(23, 80, 235);&quot;&gt;0&lt;/span&gt;&lt;span style=&quot;color: rgb(63, 145, 1);&quot;&gt;])&lt;/span&gt;;&lt;/pre&gt;&lt;/div&gt;" style="text;html=1;align=left;verticalAlign=middle;resizable=0;points=[];autosize=1;strokeColor=none;fillColor=none;" parent="1" vertex="1">
                    <mxGeometry x="280" y="500" width="380" height="80" as="geometry"/>
                </mxCell>
                <mxCell id="23" style="edgeStyle=elbowEdgeStyle;html=1;exitX=0.5;exitY=1;exitDx=0;exitDy=0;elbow=vertical;strokeColor=#66B2FF;startArrow=classic;startFill=1;" parent="1" source="16" edge="1">
                    <mxGeometry relative="1" as="geometry">
                        <mxPoint x="420" y="800.1307317073172" as="targetPoint"/>
                        <Array as="points">
                            <mxPoint x="360" y="859.96"/>
                        </Array>
                    </mxGeometry>
                </mxCell>
                <mxCell id="30" style="edgeStyle=elbowEdgeStyle;elbow=vertical;html=1;exitX=0.5;exitY=1;exitDx=0;exitDy=0;entryX=0.5;entryY=1;entryDx=0;entryDy=0;strokeColor=#66B2FF;" parent="1" source="16" target="22" edge="1">
                    <mxGeometry relative="1" as="geometry">
                        <Array as="points">
                            <mxPoint x="420" y="859.96"/>
                        </Array>
                    </mxGeometry>
                </mxCell>
                <mxCell id="16" value="&lt;font style=&quot;font-size: 24px; color: rgb(255, 255, 255);&quot;&gt;64&lt;/font&gt;" style="rounded=1;whiteSpace=wrap;html=1;resizeHeight=0;strokeOpacity=100;fillOpacity=100;strokeColor=none;gradientColor=none;fillColor=#66B2FF;" parent="1" vertex="1">
                    <mxGeometry x="280" y="759.96" width="40" height="40" as="geometry"/>
                </mxCell>
                <mxCell id="24" style="edgeStyle=elbowEdgeStyle;html=1;exitX=0.5;exitY=1;exitDx=0;exitDy=0;entryX=0.5;entryY=1;entryDx=0;entryDy=0;elbow=vertical;strokeColor=#FF9933;startArrow=classic;startFill=1;" parent="1" source="17" target="20" edge="1">
                    <mxGeometry relative="1" as="geometry">
                        <Array as="points">
                            <mxPoint x="400" y="839.96"/>
                        </Array>
                    </mxGeometry>
                </mxCell>
                <mxCell id="17" value="&lt;font style=&quot;font-size: 24px; color: rgb(255, 255, 255);&quot;&gt;34&lt;/font&gt;" style="rounded=1;whiteSpace=wrap;html=1;resizeHeight=0;strokeOpacity=100;fillOpacity=100;strokeColor=none;gradientColor=none;fillColor=#FF9933;" parent="1" vertex="1">
                    <mxGeometry x="320" y="759.96" width="40" height="40" as="geometry"/>
                </mxCell>
                <mxCell id="27" style="edgeStyle=elbowEdgeStyle;html=1;exitX=0.5;exitY=1;exitDx=0;exitDy=0;entryX=0.5;entryY=1;entryDx=0;entryDy=0;elbow=vertical;strokeColor=#B266FF;startArrow=classic;startFill=1;" parent="1" source="18" target="21" edge="1">
                    <mxGeometry relative="1" as="geometry">
                        <mxPoint x="490.0000000000001" y="809.96" as="targetPoint"/>
                        <Array as="points">
                            <mxPoint x="440" y="819.96"/>
                        </Array>
                    </mxGeometry>
                </mxCell>
                <mxCell id="18" value="&lt;font style=&quot;font-size: 24px; color: rgb(255, 255, 255);&quot;&gt;25&lt;/font&gt;" style="rounded=1;whiteSpace=wrap;html=1;resizeHeight=0;strokeOpacity=100;fillOpacity=100;strokeColor=none;gradientColor=none;fillColor=#B266FF;" parent="1" vertex="1">
                    <mxGeometry x="360" y="759.96" width="40" height="40" as="geometry"/>
                </mxCell>
                <mxCell id="19" value="&lt;font style=&quot;font-size: 24px; color: rgb(255, 255, 255);&quot;&gt;12&lt;/font&gt;" style="rounded=1;whiteSpace=wrap;html=1;resizeHeight=0;strokeOpacity=100;fillOpacity=100;strokeColor=none;gradientColor=none;fillColor=#66B2FF;" parent="1" vertex="1">
                    <mxGeometry x="400" y="759.96" width="40" height="40" as="geometry"/>
                </mxCell>
                <mxCell id="20" value="&lt;font style=&quot;font-size: 24px; color: rgb(255, 255, 255);&quot;&gt;22&lt;/font&gt;" style="rounded=1;whiteSpace=wrap;html=1;resizeHeight=0;strokeOpacity=100;fillOpacity=100;strokeColor=none;gradientColor=none;fillColor=#FF9933;" parent="1" vertex="1">
                    <mxGeometry x="440" y="759.96" width="40" height="40" as="geometry"/>
                </mxCell>
                <mxCell id="21" value="&lt;font style=&quot;font-size: 24px; color: rgb(255, 255, 255);&quot;&gt;11&lt;/font&gt;" style="rounded=1;whiteSpace=wrap;html=1;resizeHeight=0;strokeOpacity=100;fillOpacity=100;strokeColor=none;gradientColor=none;fillColor=#B266FF;" parent="1" vertex="1">
                    <mxGeometry x="480" y="759.96" width="40" height="40" as="geometry"/>
                </mxCell>
                <mxCell id="22" value="&lt;font style=&quot;font-size: 24px; color: rgb(255, 255, 255);&quot;&gt;90&lt;/font&gt;" style="rounded=1;whiteSpace=wrap;html=1;resizeHeight=0;strokeOpacity=100;fillOpacity=100;strokeColor=none;gradientColor=none;fillColor=#66B2FF;" parent="1" vertex="1">
                    <mxGeometry x="520" y="759.96" width="40" height="40" as="geometry"/>
                </mxCell>
                <mxCell id="29" value="分成了3组，每一组3个元素，最后一组只有一个元素。依据 gap，每一组里相同位置的元素，使用插入排序进行比较。&lt;div&gt;&lt;font style=&quot;color: rgb(102, 178, 255);&quot;&gt;第1组里的64，第2组里的12，第3组里的90进行比较。&lt;/font&gt;&lt;/div&gt;&lt;div&gt;&lt;font style=&quot;color: rgb(255, 153, 51);&quot;&gt;第1组里的34，第2组里的22，第3组没有对应的元素，无需比较。&lt;/font&gt;&lt;/div&gt;&lt;div&gt;&lt;font style=&quot;color: rgb(178, 102, 255);&quot;&gt;第1组里的25，第2组里的11，第3组没有对应的元素，无需比较。&lt;/font&gt;&lt;/div&gt;&lt;div&gt;&lt;font style=&quot;color: rgb(0, 0, 0);&quot;&gt;即 &lt;/font&gt;&lt;font style=&quot;color: rgb(102, 178, 255);&quot;&gt;[64, 12, 90]&lt;/font&gt;&lt;font style=&quot;color: rgb(0, 0, 0);&quot;&gt;, &lt;/font&gt;&lt;font style=&quot;color: rgb(255, 153, 51);&quot;&gt;[34, 22]&lt;/font&gt;&lt;font style=&quot;color: rgb(0, 0, 0);&quot;&gt;, &lt;/font&gt;&lt;font style=&quot;color: rgb(178, 102, 255);&quot;&gt;[25, 11]&lt;/font&gt;&lt;font style=&quot;color: rgb(0, 0, 0);&quot;&gt; 三个数组内比较排序，将小的数字，放在前边对应的索引位置上。&lt;/font&gt;&lt;/div&gt;" style="text;html=1;align=left;verticalAlign=middle;whiteSpace=wrap;rounded=0;" parent="1" vertex="1">
                    <mxGeometry x="240" y="880" width="360" height="130" as="geometry"/>
                </mxCell>
                <mxCell id="37" value="0" style="rounded=1;whiteSpace=wrap;html=1;strokeColor=none;fillColor=#E6E6E6;" parent="1" vertex="1">
                    <mxGeometry x="280" y="739.96" width="40" height="20" as="geometry"/>
                </mxCell>
                <mxCell id="38" value="1" style="rounded=1;whiteSpace=wrap;html=1;strokeColor=none;fillColor=#E6E6E6;" parent="1" vertex="1">
                    <mxGeometry x="320" y="739.96" width="40" height="20" as="geometry"/>
                </mxCell>
                <mxCell id="39" value="2" style="rounded=1;whiteSpace=wrap;html=1;strokeColor=none;fillColor=#E6E6E6;" parent="1" vertex="1">
                    <mxGeometry x="360" y="739.96" width="40" height="20" as="geometry"/>
                </mxCell>
                <mxCell id="40" value="3" style="rounded=1;whiteSpace=wrap;html=1;strokeColor=none;fillColor=#E6E6E6;" parent="1" vertex="1">
                    <mxGeometry x="400" y="739.96" width="40" height="20" as="geometry"/>
                </mxCell>
                <mxCell id="41" value="4" style="rounded=1;whiteSpace=wrap;html=1;strokeColor=none;fillColor=#E6E6E6;" parent="1" vertex="1">
                    <mxGeometry x="440" y="739.96" width="40" height="20" as="geometry"/>
                </mxCell>
                <mxCell id="42" value="5" style="rounded=1;whiteSpace=wrap;html=1;strokeColor=none;fillColor=#E6E6E6;" parent="1" vertex="1">
                    <mxGeometry x="480" y="739.96" width="40" height="20" as="geometry"/>
                </mxCell>
                <mxCell id="43" value="6" style="rounded=1;whiteSpace=wrap;html=1;strokeColor=none;fillColor=#E6E6E6;" parent="1" vertex="1">
                    <mxGeometry x="520" y="739.96" width="40" height="20" as="geometry"/>
                </mxCell>
                <mxCell id="44" value="索引" style="rounded=1;whiteSpace=wrap;html=1;strokeColor=none;fillColor=#E6E6E6;" parent="1" vertex="1">
                    <mxGeometry x="240" y="739.96" width="40" height="20" as="geometry"/>
                </mxCell>
                <mxCell id="31" value="" style="endArrow=none;html=1;elbow=vertical;entryX=0.96;entryY=0.976;entryDx=0;entryDy=0;entryPerimeter=0;strokeColor=#FF0000;" parent="1" edge="1">
                    <mxGeometry width="50" height="50" relative="1" as="geometry">
                        <mxPoint x="280" y="819.96" as="sourcePoint"/>
                        <mxPoint x="279.96" y="739" as="targetPoint"/>
                    </mxGeometry>
                </mxCell>
                <mxCell id="32" value="" style="endArrow=none;html=1;elbow=vertical;entryX=0.96;entryY=0.976;entryDx=0;entryDy=0;entryPerimeter=0;strokeColor=#FF0000;" parent="1" edge="1">
                    <mxGeometry width="50" height="50" relative="1" as="geometry">
                        <mxPoint x="400.04" y="819.96" as="sourcePoint"/>
                        <mxPoint x="400" y="739" as="targetPoint"/>
                    </mxGeometry>
                </mxCell>
                <mxCell id="33" value="" style="endArrow=none;html=1;elbow=vertical;entryX=0.96;entryY=0.976;entryDx=0;entryDy=0;entryPerimeter=0;strokeColor=#FF0000;" parent="1" edge="1">
                    <mxGeometry width="50" height="50" relative="1" as="geometry">
                        <mxPoint x="520.04" y="819.96" as="sourcePoint"/>
                        <mxPoint x="520" y="739" as="targetPoint"/>
                    </mxGeometry>
                </mxCell>
                <mxCell id="34" value="" style="endArrow=none;html=1;elbow=vertical;entryX=0.96;entryY=0.976;entryDx=0;entryDy=0;entryPerimeter=0;strokeColor=#FF0000;" parent="1" edge="1">
                    <mxGeometry width="50" height="50" relative="1" as="geometry">
                        <mxPoint x="560.04" y="819.96" as="sourcePoint"/>
                        <mxPoint x="560" y="739" as="targetPoint"/>
                    </mxGeometry>
                </mxCell>
                <mxCell id="45" value="" style="shape=curlyBracket;whiteSpace=wrap;html=1;rounded=1;labelPosition=left;verticalLabelPosition=middle;align=right;verticalAlign=middle;rotation=90;strokeColor=#000000;" parent="1" vertex="1">
                    <mxGeometry x="330" y="667" width="20" height="120" as="geometry"/>
                </mxCell>
                <mxCell id="46" value="" style="shape=curlyBracket;whiteSpace=wrap;html=1;rounded=1;labelPosition=left;verticalLabelPosition=middle;align=right;verticalAlign=middle;rotation=90;strokeColor=#000000;" parent="1" vertex="1">
                    <mxGeometry x="450" y="667" width="20" height="120" as="geometry"/>
                </mxCell>
                <mxCell id="47" value="" style="shape=curlyBracket;whiteSpace=wrap;html=1;rounded=1;labelPosition=left;verticalLabelPosition=middle;align=right;verticalAlign=middle;rotation=90;strokeColor=#000000;" parent="1" vertex="1">
                    <mxGeometry x="530" y="707" width="20" height="40" as="geometry"/>
                </mxCell>
                <mxCell id="48" value="第1组" style="text;html=1;align=center;verticalAlign=middle;whiteSpace=wrap;rounded=0;" parent="1" vertex="1">
                    <mxGeometry x="310" y="696" width="60" height="30" as="geometry"/>
                </mxCell>
                <mxCell id="49" value="第2组" style="text;html=1;align=center;verticalAlign=middle;whiteSpace=wrap;rounded=0;" parent="1" vertex="1">
                    <mxGeometry x="430" y="696" width="60" height="30" as="geometry"/>
                </mxCell>
                <mxCell id="50" value="第3组" style="text;html=1;align=center;verticalAlign=middle;whiteSpace=wrap;rounded=0;" parent="1" vertex="1">
                    <mxGeometry x="510" y="696" width="60" height="30" as="geometry"/>
                </mxCell>
                <mxCell id="51" value="&lt;font style=&quot;font-size: 24px; color: rgb(255, 255, 255);&quot;&gt;12&lt;/font&gt;" style="rounded=1;whiteSpace=wrap;html=1;resizeHeight=0;strokeOpacity=100;fillOpacity=100;strokeColor=none;gradientColor=none;fillColor=#66B2FF;" parent="1" vertex="1">
                    <mxGeometry x="280" y="1080" width="40" height="40" as="geometry"/>
                </mxCell>
                <mxCell id="52" value="&lt;font style=&quot;font-size: 24px; color: rgb(255, 255, 255);&quot;&gt;22&lt;/font&gt;" style="rounded=1;whiteSpace=wrap;html=1;resizeHeight=0;strokeOpacity=100;fillOpacity=100;strokeColor=none;gradientColor=none;fillColor=#FF9933;" parent="1" vertex="1">
                    <mxGeometry x="320" y="1080" width="40" height="40" as="geometry"/>
                </mxCell>
                <mxCell id="53" value="&lt;font style=&quot;font-size: 24px; color: rgb(255, 255, 255);&quot;&gt;11&lt;/font&gt;" style="rounded=1;whiteSpace=wrap;html=1;resizeHeight=0;strokeOpacity=100;fillOpacity=100;strokeColor=none;gradientColor=none;fillColor=#B266FF;" parent="1" vertex="1">
                    <mxGeometry x="360" y="1080" width="40" height="40" as="geometry"/>
                </mxCell>
                <mxCell id="54" value="&lt;font style=&quot;font-size: 24px; color: rgb(255, 255, 255);&quot;&gt;64&lt;/font&gt;" style="rounded=1;whiteSpace=wrap;html=1;resizeHeight=0;strokeOpacity=100;fillOpacity=100;strokeColor=none;gradientColor=none;fillColor=#66B2FF;" parent="1" vertex="1">
                    <mxGeometry x="400" y="1080" width="40" height="40" as="geometry"/>
                </mxCell>
                <mxCell id="55" value="&lt;font style=&quot;font-size: 24px; color: rgb(255, 255, 255);&quot;&gt;34&lt;/font&gt;" style="rounded=1;whiteSpace=wrap;html=1;resizeHeight=0;strokeOpacity=100;fillOpacity=100;strokeColor=none;gradientColor=none;fillColor=#FF9933;" parent="1" vertex="1">
                    <mxGeometry x="440" y="1080" width="40" height="40" as="geometry"/>
                </mxCell>
                <mxCell id="56" value="&lt;font style=&quot;font-size: 24px; color: rgb(255, 255, 255);&quot;&gt;25&lt;/font&gt;" style="rounded=1;whiteSpace=wrap;html=1;resizeHeight=0;strokeOpacity=100;fillOpacity=100;strokeColor=none;gradientColor=none;fillColor=#B266FF;" parent="1" vertex="1">
                    <mxGeometry x="480" y="1080" width="40" height="40" as="geometry"/>
                </mxCell>
                <mxCell id="57" value="&lt;font style=&quot;font-size: 24px; color: rgb(255, 255, 255);&quot;&gt;90&lt;/font&gt;" style="rounded=1;whiteSpace=wrap;html=1;resizeHeight=0;strokeOpacity=100;fillOpacity=100;strokeColor=none;gradientColor=none;fillColor=#66B2FF;" parent="1" vertex="1">
                    <mxGeometry x="520" y="1080" width="40" height="40" as="geometry"/>
                </mxCell>
                <mxCell id="59" value="" style="html=1;shadow=0;dashed=0;align=center;verticalAlign=middle;shape=mxgraph.arrows2.arrow;dy=0.67;dx=21.69;direction=south;notch=0;fillColor=#FF0000;strokeColor=none;" parent="1" vertex="1">
                    <mxGeometry x="405" y="1010" width="30" height="60" as="geometry"/>
                </mxCell>
                <mxCell id="61" value="&lt;b&gt;&lt;font style=&quot;color: rgb(0, 0, 0);&quot;&gt;第2次进行分组&lt;/font&gt;&lt;/b&gt;&lt;div&gt;&lt;b&gt;&lt;font style=&quot;color: rgb(0, 0, 0);&quot;&gt;gap = gap/2 = 1&lt;/font&gt;&lt;/b&gt;&lt;/div&gt;" style="text;html=1;align=left;verticalAlign=middle;whiteSpace=wrap;rounded=0;" parent="1" vertex="1">
                    <mxGeometry x="160" y="1080" width="120" height="40" as="geometry"/>
                </mxCell>
                <mxCell id="62" value="当 gap = 1 的时候，就不需要在进行分组了，剩下所有的元素，按照插入排序直接进行排序。" style="text;html=1;align=left;verticalAlign=middle;whiteSpace=wrap;rounded=0;fontStyle=0" parent="1" vertex="1">
                    <mxGeometry x="240" y="1160" width="360" height="40" as="geometry"/>
                </mxCell>
                <mxCell id="63" value="&lt;font style=&quot;font-size: 24px; color: rgb(255, 255, 255);&quot;&gt;11&lt;/font&gt;" style="rounded=1;whiteSpace=wrap;html=1;resizeHeight=0;strokeOpacity=100;fillOpacity=100;strokeColor=none;gradientColor=none;fillColor=#97D077;" parent="1" vertex="1">
                    <mxGeometry x="280" y="1280" width="40" height="40" as="geometry"/>
                </mxCell>
                <mxCell id="64" value="&lt;font style=&quot;font-size: 24px; color: rgb(255, 255, 255);&quot;&gt;12&lt;/font&gt;" style="rounded=1;whiteSpace=wrap;html=1;resizeHeight=0;strokeOpacity=100;fillOpacity=100;strokeColor=none;gradientColor=none;fillColor=#97D077;" parent="1" vertex="1">
                    <mxGeometry x="320" y="1280" width="40" height="40" as="geometry"/>
                </mxCell>
                <mxCell id="65" value="&lt;font style=&quot;font-size: 24px; color: rgb(255, 255, 255);&quot;&gt;22&lt;/font&gt;" style="rounded=1;whiteSpace=wrap;html=1;resizeHeight=0;strokeOpacity=100;fillOpacity=100;strokeColor=none;gradientColor=none;fillColor=#97D077;" parent="1" vertex="1">
                    <mxGeometry x="360" y="1280" width="40" height="40" as="geometry"/>
                </mxCell>
                <mxCell id="66" value="&lt;font style=&quot;font-size: 24px; color: rgb(255, 255, 255);&quot;&gt;25&lt;/font&gt;" style="rounded=1;whiteSpace=wrap;html=1;resizeHeight=0;strokeOpacity=100;fillOpacity=100;strokeColor=none;gradientColor=none;fillColor=#97D077;" parent="1" vertex="1">
                    <mxGeometry x="400" y="1280" width="40" height="40" as="geometry"/>
                </mxCell>
                <mxCell id="67" value="&lt;font style=&quot;font-size: 24px; color: rgb(255, 255, 255);&quot;&gt;34&lt;/font&gt;" style="rounded=1;whiteSpace=wrap;html=1;resizeHeight=0;strokeOpacity=100;fillOpacity=100;strokeColor=none;gradientColor=none;fillColor=#97D077;" parent="1" vertex="1">
                    <mxGeometry x="440" y="1280" width="40" height="40" as="geometry"/>
                </mxCell>
                <mxCell id="68" value="&lt;font style=&quot;font-size: 24px; color: rgb(255, 255, 255);&quot;&gt;64&lt;/font&gt;" style="rounded=1;whiteSpace=wrap;html=1;resizeHeight=0;strokeOpacity=100;fillOpacity=100;strokeColor=none;gradientColor=none;fillColor=#97D077;" parent="1" vertex="1">
                    <mxGeometry x="480" y="1280" width="40" height="40" as="geometry"/>
                </mxCell>
                <mxCell id="69" value="&lt;font style=&quot;font-size: 24px; color: rgb(255, 255, 255);&quot;&gt;90&lt;/font&gt;" style="rounded=1;whiteSpace=wrap;html=1;resizeHeight=0;strokeOpacity=100;fillOpacity=100;strokeColor=none;gradientColor=none;fillColor=#97D077;" parent="1" vertex="1">
                    <mxGeometry x="520" y="1280" width="40" height="40" as="geometry"/>
                </mxCell>
                <mxCell id="70" value="" style="html=1;shadow=0;dashed=0;align=center;verticalAlign=middle;shape=mxgraph.arrows2.arrow;dy=0.67;dx=21.69;direction=south;notch=0;fillColor=#FF0000;strokeColor=none;" parent="1" vertex="1">
                    <mxGeometry x="405" y="1210" width="30" height="60" as="geometry"/>
                </mxCell>
                <mxCell id="71" value="分组排序后" style="text;html=1;align=center;verticalAlign=middle;whiteSpace=wrap;rounded=0;" parent="1" vertex="1">
                    <mxGeometry x="435" y="1020" width="85" height="30" as="geometry"/>
                </mxCell>
                <mxCell id="72" value="&lt;font style=&quot;color: rgb(0, 0, 0);&quot;&gt;再次进行插入排序，&lt;/font&gt;&lt;div&gt;&lt;font style=&quot;color: rgb(0, 0, 0);&quot;&gt;即可完成排序。&lt;/font&gt;&lt;/div&gt;" style="text;html=1;align=left;verticalAlign=middle;whiteSpace=wrap;rounded=0;" parent="1" vertex="1">
                    <mxGeometry x="435" y="1210" width="125" height="40" as="geometry"/>
                </mxCell>
                <mxCell id="75" value="如果数组比较长，需要不断 gap / 2 重复操作，直到 gap=1。" style="text;html=1;align=left;verticalAlign=middle;whiteSpace=wrap;rounded=0;" parent="1" vertex="1">
                    <mxGeometry x="240" y="1360" width="360" height="40" as="geometry"/>
                </mxCell>
                <mxCell id="76" value="&lt;b&gt;&lt;font style=&quot;color: rgb(0, 0, 0);&quot;&gt;排序完成&lt;/font&gt;&lt;/b&gt;" style="text;html=1;align=left;verticalAlign=middle;whiteSpace=wrap;rounded=0;" parent="1" vertex="1">
                    <mxGeometry x="160" y="1280" width="120" height="40" as="geometry"/>
                </mxCell>
            </root>
        </mxGraphModel>
    </diagram>
</mxfile>